<svg width="32" height="32" viewBox="0 0 32 32" fill="none" xmlns="http://www.w3.org/2000/svg">
<path d="M16.2334 9.23334C13.9001 10.9444 7.36662 12.9667 5.50007 14.3667C2.65692 16.4992 6.90005 14.8333 16.2334 22.7667" stroke="#5A0000" stroke-width="2.72" stroke-linecap="round"/>
<path d="M27.0755 16.6121C27.8001 16.8097 28.5478 16.3825 28.7454 15.6579C28.943 14.9332 28.5158 14.1856 27.7912 13.9879L27.0755 16.6121ZM4.67656 16.6556C7.53102 16.4241 12.1922 16.1459 16.6431 16.0648C18.8689 16.0243 21.0272 16.0333 22.8732 16.1204C24.7487 16.2088 26.2033 16.3742 27.0755 16.6121L27.7912 13.9879C26.61 13.6658 24.899 13.4929 23.0013 13.4034C21.0742 13.3125 18.8516 13.3041 16.5936 13.3452C12.0766 13.4275 7.35784 13.7092 4.45674 13.9445L4.67656 16.6556Z" fill="#5A0000"/>
</svg>
