<svg width="78" height="40" viewBox="0 0 78 40" fill="none" xmlns="http://www.w3.org/2000/svg">
<path d="M42.5349 29.9476C37.3289 31.1702 36.2104 25.9972 36.3019 23.2578C36.635 20.751 41.229 19.2662 42.8138 18.2781C44.3985 17.29 47.5762 19.2173 47.6141 20.5731C47.6444 21.6579 47.9749 23.8735 48.1364 24.8457C48.4384 26.0369 47.7409 28.725 42.5349 29.9476Z" fill="#5A0000"/>
<path d="M2.36653 9.69913C2.98855 15.1358 4.61099 27.2906 6.12457 32.4166C8.01654 38.8241 6.19584 38.5798 10.9331 38.6151C15.6703 38.6503 29.8189 36.4964 37.9869 36.6918C46.1548 36.8872 48.2537 36.2683 49.3622 36.2669M2 7.39861C5.05007 5.95676 13.8105 3.06979 24.4516 3.05672C37.753 3.04038 53.9456 1.91109 55.5556 1.82694C57.1656 1.74278 71.7609 1.14961 74.5172 2.41997C76.7222 3.43626 75.989 10.6222 75.3467 14.0882M54.4216 18.2781C57.0052 16.9738 68.7395 6.98792 69.6702 5.67194M5.25783 8.58619L8.41031 9.60953M12.0643 10.5501C18.535 13.7197 32.3597 20.6576 35.8931 23.0529M54.4216 36.3467L72.3654 34.7531C73.2002 30.5502 73.9537 23.0998 74.7302 20.0208M36.3019 23.2578C36.2104 25.9972 37.3289 31.1702 42.5349 29.9476C47.7409 28.725 48.4384 26.0369 48.1364 24.8457C47.9749 23.8735 47.6444 21.6579 47.6141 20.5731C47.5762 19.2173 44.3985 17.29 42.8138 18.2781C41.229 19.2662 36.635 20.751 36.3019 23.2578Z" stroke="#5A0000" stroke-width="2.73" stroke-linecap="round"/>
</svg>
