<svg width="68" height="43" viewBox="0 0 68 43" fill="none" xmlns="http://www.w3.org/2000/svg">
<path d="M11.8115 19.7973C16.2895 25.897 22.77 37.426 31.5851 40.8903C40.4002 44.3546 48.6417 28.7839 54.2266 19.7973" stroke="#5A0000" stroke-width="2.72"/>
<path d="M12.1214 19.4999C9.73961 21.2055 5.2454 17.51 3.29603 15.449C-1.27615 9.5858 7.8682 15.449 5.95427 12.4641C4.04033 9.47918 5.84794 7.88015 7.8682 7.88015C9.88847 7.88015 8.50618 13.2103 9.67581 9.90561C10.8454 6.60091 12.1214 7.24053 13.0784 7.88015C14.0353 8.51976 15.0986 17.3678 12.1214 19.4999Z" fill="#5A0000" stroke="#5A0000" stroke-width="2.41981"/>
<path d="M55.1195 19.5483C57.6799 21.0645 62.5112 17.7795 64.6068 15.9475C69.5219 10.7358 59.6917 15.9475 61.7492 13.2943C63.8066 10.641 61.8635 9.21968 59.6917 9.21968C57.5199 9.21968 59.0059 13.9576 57.7485 11.0201C56.4912 8.08258 55.1195 8.65113 54.0908 9.21968C53.062 9.78823 51.919 17.6532 55.1195 19.5483Z" fill="#5A0000" stroke="#5A0000" stroke-width="2.41981"/>
<path d="M33.9999 41.3093C33.1949 35.5821 32.0678 22.5631 33.9999 16.3051" stroke="#5A0000" stroke-width="2.41981"/>
<path d="M33.6491 15.8075C29.833 14.6062 29.4334 10.4451 28.9874 9.15809C27.6864 5.40415 29.6047 2.89352 31.9145 5.94043C32.8902 7.22749 31.5502 2.61554 33.9744 2.61554C36.4679 2.61554 33.7575 8.83634 37.1183 5.18966C39.8286 2.2488 39.1053 8.10675 38.8529 9.47987C38.2025 13.0193 37.4653 17.0087 33.6491 15.8075Z" fill="#5A0000" stroke="#5A0000" stroke-width="3.49528"/>
<path d="M20.0649 31.305C18.736 31.9147 15.5422 32.7198 13.3987 31.0624C10.7193 28.9906 17.6041 32.4127 19.801 31.196" stroke="#5A0000" stroke-width="3.49528"/>
<path d="M20.399 31.2838C21.4392 30.3386 23.1569 28.1376 21.7064 26.8951C19.8933 25.3419 22.2999 29.5358 20.3331 31.1207" stroke="#5A0000" stroke-width="3.49528"/>
<path d="M46.6791 32.1748C47.6066 32.7673 50.004 33.6615 52.1741 32.4982C54.8868 31.044 48.4019 33.2549 46.922 32.1079" stroke="#5A0000" stroke-width="3.09613"/>
<path d="M48.2033 28.0092C47.2576 26.829 45.7353 24.0379 47.211 22.3145C49.0557 20.1603 46.4764 25.8253 48.2769 27.7906" stroke="#5A0000" stroke-width="3.09613"/>
<path d="M30.6687 24.673C29.1816 24.4431 25.808 24.2565 25.7638 22.0129C25.7087 19.2085 28.7857 21.6319 30.6687 24.673Z" fill="#5A0000" stroke="#5A0000" stroke-width="1.7512"/>
<path d="M34.5852 25.0242C36.4079 24.8702 40.6174 24.8397 40.1727 22.7054C39.6168 20.0375 36.2799 22.2106 34.5852 25.0242Z" fill="#5A0000" stroke="#5A0000" stroke-width="1.7512"/>
</svg>
