<svg width="105" height="66" viewBox="0 0 105 66" fill="none" xmlns="http://www.w3.org/2000/svg">
<path d="M64.7499 30.792L69.3842 22.8019C69.513 22.5799 69.8168 22.547 69.9757 22.7485C72.8781 26.4297 94.5953 53.7964 103.556 59.9101" stroke="#5A0000" stroke-width="2.9014" stroke-linecap="round"/>
<path d="M4.90842 60.7989L12.4438 49.208L19.079 39.7259C19.2097 39.539 19.4796 39.5205 19.6378 39.6877L27.0249 47.4952" stroke="#5A0000" stroke-width="2.9014" stroke-linecap="round"/>
<path d="M20.3292 58.0315C32.0897 40.6282 47.7187 8.92475 50.4438 13.4675C53.169 18.0102 60.7559 27.6957 65.6699 32.5559C70.584 37.4161 80.896 51.6443 80.896 51.6443" stroke="#5A0000" stroke-width="2.9014" stroke-linecap="round"/>
<path d="M62.9365 64C67.5353 64.0001 78.0916 48.0053 86.4529 52.9789C96.9047 59.1959 83.1084 54.997 83.84 59.2359C84.5716 63.4748 97.4273 64 99.2041 64" stroke="#5A0000" stroke-width="2.71745" stroke-linecap="round"/>
<mask id="mask0_576_88" style="mask-type:alpha" maskUnits="userSpaceOnUse" x="0" y="0" width="46" height="48">
<rect x="0.0519223" y="0.25536" width="32.2351" height="34.283" transform="matrix(0.824736 0.565517 -0.538407 0.842685 19.2439 0.0108395)" fill="white"/>
<rect x="0.0519223" y="0.25536" width="32.2351" height="34.283" transform="matrix(0.824736 0.565517 -0.538407 0.842685 19.2439 0.0108395)" stroke="#5A0000" stroke-width="0.362676"/>
</mask>
<g mask="url(#mask0_576_88)">
<path d="M49.1817 29.8528H6.08492C5.98751 29.8528 5.90141 29.7792 5.88078 29.684C3.94354 20.7416 14.0022 23.458 15.1621 24.9006C16.8868 27.0457 11.9285 16.7057 27.2069 17.4975C41.2124 18.2233 34.9536 25.498 37.0107 24.0463C42.2237 20.3677 50.7031 24.8093 49.3791 29.7031C49.3552 29.7915 49.2732 29.8528 49.1817 29.8528Z" stroke="#5A0000" stroke-width="2.71745"/>
</g>
</svg>
