<svg width="32" height="32" viewBox="0 0 32 32" fill="none" xmlns="http://www.w3.org/2000/svg">
<path d="M15.7666 9.23328C18.0999 10.9444 24.6334 12.9666 26.4999 14.3666C29.3431 16.4991 25.1 14.8333 15.7666 22.7666" stroke="#5A0000" stroke-width="2.72" stroke-linecap="round"/>
<path d="M4.92452 16.612C4.19988 16.8096 3.45223 16.3824 3.2546 15.6578C3.05697 14.9331 3.4842 14.1855 4.20884 13.9878L4.92452 16.612ZM27.3234 16.6555C24.469 16.424 19.8078 16.1458 15.3569 16.0647C13.1311 16.0242 10.9728 16.0332 9.12678 16.1203C7.25127 16.2087 5.79672 16.3741 4.92452 16.612L4.20884 13.9878C5.38998 13.6657 7.10098 13.4928 8.99867 13.4033C10.9258 13.3124 13.1484 13.304 15.4064 13.3452C19.9234 13.4274 24.6422 13.7092 27.5433 13.9444L27.3234 16.6555Z" fill="#5A0000"/>
</svg>
